<svg width="512" height="512" viewBox="0 0 512 512" fill="none" xmlns="http://www.w3.org/2000/svg">
<path d="M512 256C512 397.385 397.385 512 256 512C114.615 512 0 397.385 0 256C0 114.615 114.615 0 256 0C397.385 0 512 114.615 512 256Z" fill="url(#paint0_radial_3398_607)"/>
<path d="M197.692 62.4641H164.581C163.04 62.4641 161.791 63.713 161.791 65.2538V98.3648C161.791 99.9056 163.04 101.155 164.581 101.155H197.692C199.233 101.155 200.482 99.9056 200.482 98.3648V65.2538C200.482 63.713 199.233 62.4641 197.692 62.4641Z" fill="#009EF1"/>
<path d="M297.39 62.4641H264.28C262.739 62.4641 261.49 63.713 261.49 65.2538V98.3648C261.49 99.9056 262.739 101.155 264.28 101.155H297.39C298.931 101.155 300.18 99.9056 300.18 98.3648V65.2538C300.18 63.713 298.931 62.4641 297.39 62.4641Z" fill="#1FB96D"/>
<path d="M347.085 62.4641H313.975C312.434 62.4641 311.185 63.713 311.185 65.2538V98.3648C311.185 99.9056 312.434 101.155 313.975 101.155H347.085C348.626 101.155 349.875 99.9056 349.875 98.3648V65.2538C349.875 63.713 348.626 62.4641 347.085 62.4641Z" fill="#DACD05"/>
<path d="M148.132 112.24H115.021C113.48 112.24 112.231 113.489 112.231 115.03V148.141C112.231 149.682 113.48 150.931 115.021 150.931H148.132C149.673 150.931 150.922 149.682 150.922 148.141V115.03C150.922 113.489 149.673 112.24 148.132 112.24Z" fill="#1659EF"/>
<path d="M148.132 211.968H115.021C113.48 211.968 112.231 213.217 112.231 214.758V247.869C112.231 249.41 113.48 250.659 115.021 250.659H148.132C149.673 250.659 150.922 249.41 150.922 247.869V214.758C150.922 213.217 149.673 211.968 148.132 211.968Z" fill="#1659EF"/>
<path d="M197.832 112.24H164.721C163.18 112.24 161.931 113.489 161.931 115.03V148.141C161.931 149.682 163.18 150.931 164.721 150.931H197.832C199.372 150.931 200.621 149.682 200.621 148.141V115.03C200.621 113.489 199.372 112.24 197.832 112.24Z" fill="#009EF1"/>
<path d="M247.608 112.24H214.497C212.957 112.24 211.707 113.489 211.707 115.03V148.141C211.707 149.682 212.957 150.931 214.497 150.931H247.608C249.149 150.931 250.398 149.682 250.398 148.141V115.03C250.398 113.489 249.149 112.24 247.608 112.24Z" fill="#01C0CB"/>
<path d="M247.608 161.792H214.497C212.957 161.792 211.707 163.041 211.707 164.582V197.693C211.707 199.234 212.957 200.483 214.497 200.483H247.608C249.149 200.483 250.398 199.234 250.398 197.693V164.582C250.398 163.041 249.149 161.792 247.608 161.792Z" fill="#01C0CB"/>
<path d="M247.608 62.4641H214.497C212.957 62.4641 211.707 63.713 211.707 65.2538V98.3648C211.707 99.9056 212.957 101.155 214.497 101.155H247.608C249.149 101.155 250.398 99.9056 250.398 98.3648V65.2538C250.398 63.713 249.149 62.4641 247.608 62.4641Z" fill="#01C0CB"/>
<path d="M297.39 112.24H264.279C262.739 112.24 261.49 113.489 261.49 115.03V148.141C261.49 149.682 262.739 150.931 264.279 150.931H297.39C298.931 150.931 300.18 149.682 300.18 148.141V115.03C300.18 113.489 298.931 112.24 297.39 112.24Z" fill="#1FB96D"/>
<path d="M297.39 161.792H264.279C262.739 161.792 261.49 163.041 261.49 164.582V197.693C261.49 199.234 262.739 200.483 264.279 200.483H297.39C298.931 200.483 300.18 199.234 300.18 197.693V164.582C300.18 163.041 298.931 161.792 297.39 161.792Z" fill="#1FB96D"/>
<path d="M347.086 112.24H313.975C312.435 112.24 311.185 113.489 311.185 115.03V148.141C311.185 149.682 312.435 150.931 313.975 150.931H347.086C348.627 150.931 349.876 149.682 349.876 148.141V115.03C349.876 113.489 348.627 112.24 347.086 112.24Z" fill="#DACD05"/>
<path d="M347.086 211.456H313.975C312.435 211.456 311.185 212.705 311.185 214.246V247.357C311.185 248.898 312.435 250.147 313.975 250.147H347.086C348.627 250.147 349.876 248.898 349.876 247.357V214.246C349.876 212.705 348.627 211.456 347.086 211.456Z" fill="#DACD05"/>
<path d="M396.868 112.24H363.757C362.216 112.24 360.967 113.489 360.967 115.03V148.141C360.967 149.682 362.216 150.931 363.757 150.931H396.868C398.408 150.931 399.657 149.682 399.657 148.141V115.03C399.657 113.489 398.408 112.24 396.868 112.24Z" fill="#F97203"/>
<path d="M148.132 161.944H115.021C113.48 161.944 112.231 163.193 112.231 164.734V197.845C112.231 199.385 113.48 200.635 115.021 200.635H148.132C149.673 200.635 150.922 199.385 150.922 197.845V164.734C150.922 163.193 149.673 161.944 148.132 161.944Z" fill="#1659EF"/>
<path d="M148.132 261.672H115.021C113.48 261.672 112.231 262.921 112.231 264.462V297.573C112.231 299.113 113.48 300.363 115.021 300.363H148.132C149.673 300.363 150.922 299.113 150.922 297.573V264.462C150.922 262.921 149.673 261.672 148.132 261.672Z" fill="#1659EF"/>
<path d="M197.832 161.944H164.721C163.18 161.944 161.931 163.193 161.931 164.734V197.845C161.931 199.385 163.18 200.635 164.721 200.635H197.832C199.372 200.635 200.621 199.385 200.621 197.845V164.734C200.621 163.193 199.372 161.944 197.832 161.944Z" fill="#009EF1"/>
<path d="M347.086 161.944H313.975C312.435 161.944 311.185 163.193 311.185 164.734V197.845C311.185 199.385 312.435 200.635 313.975 200.635H347.086C348.627 200.635 349.876 199.385 349.876 197.845V164.734C349.876 163.193 348.627 161.944 347.086 161.944Z" fill="#DACD05"/>
<path d="M347.086 261.16H313.975C312.435 261.16 311.185 262.409 311.185 263.95V297.061C311.185 298.601 312.435 299.851 313.975 299.851H347.086C348.627 299.851 349.876 298.601 349.876 297.061V263.95C349.876 262.409 348.627 261.16 347.086 261.16Z" fill="#DACD05"/>
<path d="M396.868 161.944H363.757C362.216 161.944 360.967 163.193 360.967 164.734V197.845C360.967 199.385 362.216 200.635 363.757 200.635H396.868C398.408 200.635 399.657 199.385 399.657 197.845V164.734C399.657 163.193 398.408 161.944 396.868 161.944Z" fill="#F97203"/>
<path d="M446.648 161.944H413.537C411.997 161.944 410.747 163.193 410.747 164.734V197.845C410.747 199.385 411.997 200.635 413.537 200.635H446.648C448.189 200.635 449.438 199.385 449.438 197.845V164.734C449.438 163.193 448.189 161.944 446.648 161.944Z" fill="#F02D10"/>
<path d="M98.3641 211.72H65.2533C63.7126 211.72 62.4635 212.969 62.4635 214.51V247.621C62.4635 249.161 63.7126 250.411 65.2533 250.411H98.3641C99.9049 250.411 101.154 249.161 101.154 247.621V214.51C101.154 212.969 99.9049 211.72 98.3641 211.72Z" fill="#5D2AE5"/>
<path d="M98.3641 161.792H65.2533C63.7126 161.792 62.4635 163.041 62.4635 164.582V197.693C62.4635 199.233 63.7126 200.483 65.2533 200.483H98.3641C99.9049 200.483 101.154 199.233 101.154 197.693V164.582C101.154 163.041 99.9049 161.792 98.3641 161.792Z" fill="#5D2AE5"/>
<path d="M197.832 211.72H164.721C163.18 211.72 161.931 212.969 161.931 214.51V247.621C161.931 249.161 163.18 250.411 164.721 250.411H197.832C199.372 250.411 200.621 249.161 200.621 247.621V214.51C200.621 212.969 199.372 211.72 197.832 211.72Z" fill="#009EF1"/>
<path d="M247.608 211.72H214.497C212.957 211.72 211.707 212.969 211.707 214.51V247.621C211.707 249.161 212.957 250.411 214.497 250.411H247.608C249.149 250.411 250.398 249.161 250.398 247.621V214.51C250.398 212.969 249.149 211.72 247.608 211.72Z" fill="#01C0CB"/>
<path d="M247.608 311.296H214.497C212.957 311.296 211.707 312.545 211.707 314.086V347.197C211.707 348.737 212.957 349.987 214.497 349.987H247.608C249.149 349.987 250.398 348.737 250.398 347.197V314.086C250.398 312.545 249.149 311.296 247.608 311.296Z" fill="#01C0CB"/>
<path d="M297.39 211.72H264.279C262.739 211.72 261.49 212.969 261.49 214.51V247.621C261.49 249.161 262.739 250.411 264.279 250.411H297.39C298.931 250.411 300.18 249.161 300.18 247.621V214.51C300.18 212.969 298.931 211.72 297.39 211.72Z" fill="#1FB96D"/>
<path d="M297.39 261.632H264.279C262.739 261.632 261.49 262.881 261.49 264.422V297.533C261.49 299.073 262.739 300.323 264.279 300.323H297.39C298.931 300.323 300.18 299.073 300.18 297.533V264.422C300.18 262.881 298.931 261.632 297.39 261.632Z" fill="#1FB96D"/>
<path d="M297.39 360.961H264.279C262.739 360.961 261.49 362.21 261.49 363.75V396.861C261.49 398.402 262.739 399.651 264.279 399.651H297.39C298.931 399.651 300.18 398.402 300.18 396.861V363.75C300.18 362.21 298.931 360.961 297.39 360.961Z" fill="#1FB96D"/>
<path d="M297.39 410.625H264.279C262.739 410.625 261.49 411.874 261.49 413.414V446.525C261.49 448.066 262.739 449.315 264.279 449.315H297.39C298.931 449.315 300.18 448.066 300.18 446.525V413.414C300.18 411.874 298.931 410.625 297.39 410.625Z" fill="#1FB96D"/>
<path d="M446.648 211.72H413.537C411.996 211.72 410.747 212.969 410.747 214.51V247.621C410.747 249.161 411.996 250.411 413.537 250.411H446.648C448.189 250.411 449.438 249.161 449.438 247.621V214.51C449.438 212.969 448.189 211.72 446.648 211.72Z" fill="#F02D10"/>
<path d="M98.3636 261.496H65.2528C63.7121 261.496 62.463 262.745 62.463 264.286V297.397C62.463 298.937 63.7121 300.187 65.2528 300.187H98.3636C99.9044 300.187 101.153 298.937 101.153 297.397V264.286C101.153 262.745 99.9044 261.496 98.3636 261.496Z" fill="#5D2AE5"/>
<path d="M197.832 261.496H164.721C163.18 261.496 161.931 262.745 161.931 264.286V297.397C161.931 298.937 163.18 300.187 164.721 300.187H197.832C199.372 300.187 200.621 298.937 200.621 297.397V264.286C200.621 262.745 199.372 261.496 197.832 261.496Z" fill="#009EF1"/>
<path d="M247.608 261.496H214.497C212.957 261.496 211.707 262.745 211.707 264.286V297.397C211.707 298.937 212.957 300.187 214.497 300.187H247.608C249.149 300.187 250.398 298.937 250.398 297.397V264.286C250.398 262.745 249.149 261.496 247.608 261.496Z" fill="#01C0CB"/>
<path d="M247.608 361.072H214.497C212.957 361.072 211.707 362.321 211.707 363.862V396.973C211.707 398.513 212.957 399.763 214.497 399.763H247.608C249.149 399.763 250.398 398.513 250.398 396.973V363.862C250.398 362.321 249.149 361.072 247.608 361.072Z" fill="#01C0CB"/>
<path d="M396.868 261.496H363.757C362.216 261.496 360.967 262.745 360.967 264.286V297.397C360.967 298.937 362.216 300.187 363.757 300.187H396.868C398.408 300.187 399.657 298.937 399.657 297.397V264.286C399.657 262.745 398.408 261.496 396.868 261.496Z" fill="#F97203"/>
<path d="M446.648 261.496H413.537C411.997 261.496 410.747 262.745 410.747 264.286V297.397C410.747 298.937 411.997 300.187 413.537 300.187H446.648C448.189 300.187 449.438 298.937 449.438 297.397V264.286C449.438 262.745 448.189 261.496 446.648 261.496Z" fill="#F02D10"/>
<path d="M446.648 311.296H413.537C411.997 311.296 410.747 312.545 410.747 314.086V347.197C410.747 348.737 411.997 349.987 413.537 349.987H446.648C448.189 349.987 449.438 348.737 449.438 347.197V314.086C449.438 312.545 448.189 311.296 446.648 311.296Z" fill="#F02D10"/>
<path d="M98.3636 311.199H65.2528C63.7121 311.199 62.463 312.448 62.463 313.989V347.1C62.463 348.641 63.7121 349.89 65.2528 349.89H98.3636C99.9044 349.89 101.153 348.641 101.153 347.1V313.989C101.153 312.448 99.9044 311.199 98.3636 311.199Z" fill="#5D2AE5"/>
<path d="M148.133 311.199H115.022C113.481 311.199 112.232 312.448 112.232 313.989V347.1C112.232 348.641 113.481 349.89 115.022 349.89H148.133C149.674 349.89 150.923 348.641 150.923 347.1V313.989C150.923 312.448 149.674 311.199 148.133 311.199Z" fill="#1659EF"/>
<path d="M197.832 311.199H164.721C163.181 311.199 161.931 312.448 161.931 313.989V347.1C161.931 348.641 163.181 349.89 164.721 349.89H197.832C199.373 349.89 200.622 348.641 200.622 347.1V313.989C200.622 312.448 199.373 311.199 197.832 311.199Z" fill="#009EF1"/>
<path d="M197.832 360.961H164.721C163.181 360.961 161.931 362.21 161.931 363.75V396.861C161.931 398.402 163.181 399.651 164.721 399.651H197.832C199.373 399.651 200.622 398.402 200.622 396.861V363.75C200.622 362.21 199.373 360.961 197.832 360.961Z" fill="#009EF1"/>
<path d="M297.39 311.199H264.28C262.739 311.199 261.49 312.448 261.49 313.989V347.1C261.49 348.641 262.739 349.89 264.28 349.89H297.39C298.931 349.89 300.18 348.641 300.18 347.1V313.989C300.18 312.448 298.931 311.199 297.39 311.199Z" fill="#1FB96D"/>
<path d="M347.086 311.199H313.975C312.435 311.199 311.185 312.448 311.185 313.989V347.1C311.185 348.641 312.435 349.89 313.975 349.89H347.086C348.627 349.89 349.876 348.641 349.876 347.1V313.989C349.876 312.448 348.627 311.199 347.086 311.199Z" fill="#DACD05"/>
<path d="M347.086 360.961H313.975C312.435 360.961 311.185 362.21 311.185 363.75V396.861C311.185 398.402 312.435 399.651 313.975 399.651H347.086C348.627 399.651 349.876 398.402 349.876 396.861V363.75C349.876 362.21 348.627 360.961 347.086 360.961Z" fill="#DACD05"/>
<path d="M396.868 311.199H363.757C362.216 311.199 360.967 312.448 360.967 313.989V347.1C360.967 348.641 362.216 349.89 363.757 349.89H396.868C398.408 349.89 399.657 348.641 399.657 347.1V313.989C399.657 312.448 398.408 311.199 396.868 311.199Z" fill="#F97203"/>
<path d="M148.132 360.976H115.021C113.48 360.976 112.231 362.225 112.231 363.766V396.877C112.231 398.418 113.48 399.667 115.021 399.667H148.132C149.673 399.667 150.922 398.418 150.922 396.877V363.766C150.922 362.225 149.673 360.976 148.132 360.976Z" fill="#1659EF"/>
<path d="M197.832 410.751H164.721C163.18 410.751 161.931 412 161.931 413.541V446.652C161.931 448.193 163.18 449.442 164.721 449.442H197.832C199.372 449.442 200.621 448.193 200.621 446.652V413.541C200.621 412 199.372 410.751 197.832 410.751Z" fill="#009EF1"/>
<path d="M247.608 410.751H214.497C212.957 410.751 211.708 412 211.708 413.541V446.652C211.708 448.193 212.957 449.442 214.497 449.442H247.608C249.149 449.442 250.398 448.193 250.398 446.652V413.541C250.398 412 249.149 410.751 247.608 410.751Z" fill="#01C0CB"/>
<path d="M347.085 410.751H313.975C312.434 410.751 311.185 412 311.185 413.541V446.652C311.185 448.193 312.434 449.442 313.975 449.442H347.085C348.626 449.442 349.875 448.193 349.875 446.652V413.541C349.875 412 348.626 410.751 347.085 410.751Z" fill="#DACD05"/>
<path d="M396.868 360.961H363.757C362.217 360.961 360.967 362.21 360.967 363.75V396.861C360.967 398.402 362.217 399.651 363.757 399.651H396.868C398.409 399.651 399.658 398.402 399.658 396.861V363.75C399.658 362.21 398.409 360.961 396.868 360.961Z" fill="#F97203"/>
<path d="M396.868 211.968H363.757C362.217 211.968 360.967 213.217 360.967 214.758V247.869C360.967 249.41 362.217 250.659 363.757 250.659H396.868C398.409 250.659 399.658 249.41 399.658 247.869V214.758C399.658 213.217 398.409 211.968 396.868 211.968Z" fill="#F97203"/>
<defs>
<radialGradient id="paint0_radial_3398_607" cx="0" cy="0" r="1" gradientUnits="userSpaceOnUse" gradientTransform="translate(157.784 163.754) rotate(17.1131) scale(391.786)">
<stop stop-color="#0036BC"/>
<stop offset="0.596154" stop-color="#0B2B90"/>
<stop offset="1" stop-color="#151F64"/>
</radialGradient>
</defs>
</svg>
