<svg width="512" height="512" viewBox="0 0 512 512" fill="none" xmlns="http://www.w3.org/2000/svg">
<mask id="mask0_3401_681" style="mask-type:luminance" maskUnits="userSpaceOnUse" x="0" y="0" width="512" height="512">
<path d="M256 512C397.385 512 512 397.385 512 256C512 114.615 397.385 0 256 0C114.615 0 0 114.615 0 256C0 397.385 114.615 512 256 512Z" fill="white"/>
</mask>
<g mask="url(#mask0_3401_681)">
<path d="M512 0H0V512H512V0Z" fill="#151F64"/>
<path d="M512.512 279.638V326.404H513.342C511.985 329.405 510.587 332.385 509.164 335.334C506.307 341.242 503.317 347.048 500.194 352.757C487.701 375.597 473.104 396.845 456.735 416.327C423.993 455.29 384.154 487.193 339.845 510.643C337.075 512.107 334.29 513.54 331.484 514.938V512.511H-0.511719V-0.512619H511.273V-2.07422C512.604 0.762261 513.905 3.6141 515.17 6.48642H512.512V279.644V279.638Z" fill="#151F64"/>
<path d="M512.512 278.59V315.935H514.033C508.928 328.019 503.255 339.728 497.065 351.043C484.685 373.674 470.221 394.727 454.001 414.035C421.561 452.645 382.08 484.255 338.171 507.49C332.682 510.393 327.122 513.168 321.5 515.81V512.508H-0.511719V-0.5113H508.053V-0.5625C510.695 5.05926 513.198 10.7476 515.569 16.4922H512.512V278.59Z" fill="#151F65"/>
<path d="M512.512 277.54V305.496H514.443C513.25 308.537 512.016 311.552 510.751 314.543C505.692 326.513 500.076 338.12 493.942 349.328C481.675 371.753 467.344 392.612 451.272 411.741C419.129 449.997 380.012 481.316 336.507 504.341C331.07 507.218 325.561 509.968 319.99 512.584V512.507H-0.511719V-0.511484H502.841V-3.21484C503.511 -1.83244 504.172 -0.439804 504.827 0.952836C507.444 6.5234 509.927 12.1554 512.277 17.8488C513.449 20.6956 514.591 23.5576 515.697 26.43H512.512V277.545V277.54Z" fill="#152066"/>
<path d="M512.512 276.495V295.091H514.575C512.348 301.204 509.983 307.226 507.474 313.155C502.461 325.018 496.896 336.512 490.818 347.617C478.669 369.833 464.471 390.502 448.543 409.451C416.696 447.355 377.943 478.382 334.838 501.192C329.451 504.043 323.993 506.767 318.474 509.358C315.714 510.653 312.939 511.918 310.149 513.147V512.507H7.78733V515.231C4.82285 513.976 1.87885 512.691 -1.03955 511.37H-0.512191V-0.512062H499.635V-1.66406C500.301 -0.291902 500.956 1.08538 501.601 2.46266C504.192 7.98202 506.655 13.5628 508.979 19.2051C511.304 24.8473 513.5 30.5407 515.553 36.2956H512.507V276.5L512.512 276.495Z" fill="#142067"/>
<path d="M512.512 275.445V284.722H514.432C513.403 287.794 512.333 290.84 511.232 293.866C509.025 299.918 506.68 305.888 504.197 311.761C499.231 323.511 493.716 334.898 487.7 345.906C475.663 367.917 461.599 388.392 445.824 407.162C414.274 444.707 375.885 475.447 333.184 498.047C322.509 503.694 311.562 508.835 300.39 513.448V512.511H18.0581V515.578C15.0731 514.405 12.1138 513.197 9.18001 511.958C6.24113 510.714 3.32785 509.439 0.435049 508.133C-1.00879 507.478 -2.45263 506.817 -3.88623 506.147H-0.512151V-0.513204H495.431V-2.14648C495.764 -1.47064 496.097 -0.789684 496.425 -0.108724C497.085 1.24808 497.73 2.61512 498.375 3.98216C500.941 9.45032 503.383 14.9799 505.687 20.5658C507.991 26.1518 510.167 31.7991 512.199 37.4926C513.218 40.3393 514.201 43.2014 515.154 46.0788H512.512V275.45V275.445Z" fill="#142068"/>
<path d="M514.007 274.396C483.62 373.094 416.102 450.135 331.504 494.899C320.932 500.495 310.087 505.584 299.018 510.151C296.253 511.293 293.468 512.404 290.672 513.479V512.507H28.2928V515.64C22.2973 513.454 16.3888 511.129 10.5674 508.672C7.65922 507.443 4.77154 506.178 1.90434 504.883C0.470743 504.233 -0.952617 503.577 -2.37598 502.912H-0.512297V-0.512337H491.243V-2.58594C492.579 0.0918226 493.88 2.78494 495.155 5.4883C497.7 10.9053 500.111 16.3837 502.395 21.9184C506.962 32.9878 511.001 44.2825 514.498 55.7667H512.512V274.396H514.012H514.007Z" fill="#142069"/>
<path d="M510.607 273.35C480.507 371.111 413.635 447.415 329.846 491.754C319.37 497.299 308.634 502.337 297.672 506.863C292.188 509.126 286.654 511.256 281.062 513.253V512.51H38.4871V515.439C35.4765 514.425 32.4813 513.381 29.5117 512.3C23.5725 510.135 17.7204 507.836 11.9552 505.399C9.07269 504.18 6.21061 502.931 3.37413 501.646C1.95589 501.006 0.542766 500.356 -0.865234 499.695H-0.517074V-0.5136H488.049V-1C489.37 1.65216 490.665 4.31968 491.925 6.99744C494.444 12.3632 496.835 17.7853 499.098 23.2688C503.619 34.2307 507.622 45.423 511.089 56.7946C512.819 62.4829 514.417 68.2173 515.876 73.9926H512.512V254.985H515.758C514.207 261.113 512.492 267.232 510.607 273.345V273.35Z" fill="#14216A"/>
<path d="M507.202 272.303C477.394 369.122 411.161 444.694 328.176 488.608C307.43 499.585 285.639 508.586 263.106 515.447V512.518H48.6396V514.971C36.5359 511.243 24.7651 506.948 13.3475 502.125C7.63867 499.713 2.01691 497.169 -3.5127 494.491H-0.512375V-0.510911H482.877V-3.33203C483.548 -2.02643 484.208 -0.720831 484.864 0.595009C486.174 3.22157 487.454 5.86349 488.699 8.51565C491.192 13.8302 493.563 19.2011 495.8 24.6283C500.28 35.4878 504.243 46.5675 507.673 57.8315C509.388 63.4635 510.971 69.1416 512.414 74.8657C513.136 77.7278 513.822 80.595 514.478 83.4776H512.507V245.008H514.483C513.797 248.045 513.065 251.081 512.297 254.117C510.761 260.184 509.061 266.246 507.197 272.298L507.202 272.303Z" fill="#13216B"/>
<path d="M503.798 271.252C474.276 367.129 408.688 441.969 326.512 485.453C305.966 496.322 284.385 505.236 262.072 512.031C259.282 512.881 256.481 513.695 253.67 514.478V512.507H58.6852V514.202C55.6849 513.362 52.6846 512.476 49.6894 511.554C37.7035 507.863 26.0503 503.613 14.7403 498.831C9.08779 496.44 3.52235 493.921 -1.95605 491.274H-0.512215V-0.512118H479.713V-1.70508C480.379 -0.414838 481.034 0.880522 481.684 2.181C482.98 4.78196 484.249 7.39828 485.483 10.0248C487.956 15.2882 490.301 20.6079 492.518 25.9839C496.952 36.7359 500.879 47.708 504.279 58.8696C507.673 70.0261 510.541 81.3669 512.855 92.8511H512.517V235.202H512.942C510.536 247.24 507.494 259.272 503.803 271.252H503.798Z" fill="#13216C"/>
<path d="M500.393 270.208C471.163 365.148 406.216 439.25 324.844 482.309C304.502 493.077 283.131 501.899 261.038 508.626C255.514 510.306 249.943 511.857 244.337 513.275V512.512H68.5672V513.157C62.6177 511.652 56.6734 509.983 50.7393 508.155C38.8712 504.5 27.3307 500.291 16.1332 495.555C10.5371 493.189 5.02284 490.691 -0.399238 488.069C-1.07508 487.742 -1.75604 487.414 -2.42676 487.081H-0.506758V-0.51169H474.552V-3.90625C496.082 36.7824 509.855 81.5722 514.586 128.062H512.517V198.764H514.75C512.44 222.556 507.71 246.467 500.403 270.203L500.393 270.208Z" fill="#13226D"/>
<path d="M496.988 269.158C468.045 363.156 403.743 436.525 323.18 479.159C303.037 489.819 281.882 498.554 260.004 505.215C249.068 508.543 237.947 511.354 226.688 513.622V512.506H87.1271V513.704C75.3255 511.344 63.5341 508.364 51.7837 504.744C40.0333 501.124 28.6055 496.957 17.5207 492.272C11.9757 489.927 6.52291 487.459 1.15203 484.863C-0.189414 484.213 -1.52573 483.558 -2.85693 482.892H-0.511974V-0.512841H471.398V-2.23828C492.713 38.0459 506.348 82.3953 511.037 128.424C515.722 174.453 511.462 222.161 496.993 269.158H496.988Z" fill="#13226E"/>
<path d="M493.584 268.108C464.932 361.169 401.27 433.801 321.511 476.011C281.631 497.115 237.722 510.612 192.154 515.25V512.506H122.85V515.409C99.5279 513.146 76.0886 508.507 52.8233 501.345C41.1906 497.761 29.8754 493.634 18.9033 488.995C13.4146 486.676 8.01303 484.228 2.69847 481.658C1.36727 481.018 0.0463088 480.368 -1.26953 479.707H-0.516891V-0.512779H468.245V-0.574219C489.349 39.3055 502.846 83.2146 507.484 128.783C512.123 174.351 507.904 221.583 493.578 268.113L493.584 268.108Z" fill="#12226F"/>
<path d="M490.184 267.059C461.819 359.178 398.807 431.079 319.852 472.863C280.376 493.752 236.913 507.116 191.806 511.708C169.252 514.007 146.289 514.11 123.203 511.867C100.117 509.624 76.9127 505.037 53.8829 497.946C42.368 494.403 31.1706 490.312 20.306 485.724C14.8736 483.431 9.52836 481.009 4.265 478.464C1.63332 477.194 -0.972756 475.889 -3.56348 474.558H-0.506837V-0.511863H463.13V-2.5957C463.795 -1.37202 464.456 -0.138103 465.111 1.09582C486.001 40.571 499.364 84.0347 503.957 129.142C508.549 174.249 504.376 221.005 490.194 267.064L490.184 267.059Z" fill="#122270"/>
<path d="M486.779 266.015C458.706 357.192 396.334 428.36 318.182 469.719C279.107 490.399 236.088 503.619 191.442 508.165C146.796 512.712 100.516 508.58 54.9274 494.541C43.5303 491.034 32.4455 486.989 21.6935 482.442C16.3175 480.169 11.0234 477.773 5.81638 475.254C3.2103 473.994 0.629824 472.704 -1.93018 471.388H-0.511936V-0.511745H459.996V-0.890625C460.657 0.322815 461.312 1.54137 461.957 2.75993C503.311 80.9116 514.857 174.838 486.779 266.015Z" fill="#122371"/>
<path d="M483.374 264.964C455.587 355.204 393.861 425.64 316.518 466.564C277.847 487.029 235.269 500.115 191.083 504.616C146.898 509.116 101.099 505.025 55.9765 491.135C44.6972 487.664 33.725 483.66 23.0857 479.159C17.766 476.912 12.5282 474.536 7.37239 472.048C4.79703 470.803 2.23703 469.523 -0.297375 468.223C-1.56713 467.573 -2.82665 466.912 -4.08105 466.241H-0.507295V-0.51309H454.886V-2.78125C456.222 -0.39533 457.528 2.00595 458.808 4.42259C499.737 81.7653 511.16 174.724 483.374 264.964Z" fill="#122372"/>
<path d="M479.969 263.916C452.474 353.214 391.388 422.917 314.849 463.417C238.31 503.916 146.319 515.221 57.0209 487.726C45.8593 484.291 35.0049 480.328 24.473 475.879C19.2097 473.652 14.0231 471.307 8.92357 468.839C6.37381 467.605 3.84453 466.345 1.33573 465.05C0.0813308 464.405 -1.16795 463.749 -2.41211 463.089H-0.512589V-0.511702H451.778V-1.03906C453.099 1.32126 454.394 3.69694 455.659 6.0931C496.163 82.632 507.463 174.623 479.969 263.921V263.916Z" fill="#122373"/>
<path d="M476.564 262.87C449.362 351.231 388.915 420.198 313.185 460.272C237.45 500.346 146.432 511.533 58.0708 484.331C47.0269 480.931 36.2852 477.009 25.866 472.606C20.6538 470.404 15.5236 468.08 10.4804 465.643C7.95622 464.424 5.45254 463.175 2.97446 461.895C1.73542 461.255 0.496378 460.61 -0.732422 459.955H-0.507142V-0.512616H446.689V-2.79102C447.36 -1.62878 448.02 -0.466535 448.67 0.700824C449.981 3.03554 451.261 5.39074 452.51 7.75618C492.585 83.4912 503.772 174.509 476.569 262.87H476.564Z" fill="#112374"/>
<path d="M473.159 261.822C446.244 349.241 386.442 417.475 311.516 457.125C236.59 496.774 146.534 507.838 59.1153 480.928C37.258 474.2 16.6039 465.414 -2.70361 454.851H-0.517373V-0.511173H443.597V-1.00781C444.257 0.139068 444.912 1.29107 445.558 2.44819C446.853 4.75731 448.118 7.08691 449.357 9.42675C489.006 84.3528 500.07 174.409 473.159 261.827V261.822Z" fill="#112475"/>
<path d="M469.755 260.771C443.131 347.248 383.969 414.75 309.852 453.974C235.73 493.198 146.647 504.145 60.165 477.521C38.5432 470.865 18.1093 462.176 -0.988281 451.726H-0.512121V-0.513132H438.533V-2.63281C441.206 1.87791 443.766 6.45519 446.218 11.0837C485.442 85.2059 496.389 174.289 469.765 260.771H469.755Z" fill="#112476"/>
<path d="M466.355 259.727C440.018 345.267 381.501 412.032 308.188 450.831C234.875 489.63 146.754 500.454 61.2197 474.122C39.8335 467.538 19.6248 458.941 0.726899 448.609C-0.455821 447.964 -1.6283 447.308 -2.80078 446.653H-0.512141V-0.512373H435.466V-0.814453C438.108 3.65019 440.642 8.17115 443.064 12.7535C481.864 86.0668 492.687 174.187 466.355 259.722V259.727Z" fill="#112477"/>
<path d="M462.95 258.679C436.905 343.276 379.033 409.309 306.519 447.678C234.009 486.047 146.862 496.759 62.2641 470.713C41.1134 464.2 21.1249 455.701 2.43692 445.477C1.26956 444.837 0.107315 444.191 -1.0498 443.541H-0.512205V-0.511209H430.423V-2.29297C431.088 -1.19729 431.749 -0.0964892 432.399 1.00431C435.01 5.41775 437.519 9.89263 439.915 14.4238C478.285 86.9333 488.996 174.081 462.95 258.679Z" fill="#102578"/>
<path d="M459.546 257.627C433.787 341.288 376.561 406.583 304.855 444.528C233.149 482.472 146.97 493.06 63.3139 467.306C42.3987 460.865 22.6304 452.458 4.15229 442.352C1.84317 441.087 -0.44547 439.797 -2.71875 438.481H-0.51203V-0.5131H425.385V-3.6875C426.726 -1.5371 428.047 0.62866 429.338 2.8149C431.918 7.17714 434.401 11.6059 436.772 16.0859C474.716 87.7915 485.304 173.971 459.551 257.627H459.546Z" fill="#102579"/>
<path d="M456.141 256.579C405.202 422.016 229.796 514.837 64.3586 463.903C43.6789 457.534 24.1359 449.224 5.8626 439.23C3.57908 437.98 1.31604 436.706 -0.931641 435.405H-0.516921V-0.511755H422.359V-1.79688C423.685 0.327925 424.991 2.47321 426.266 4.62873C428.821 8.94489 431.268 13.3174 433.613 17.7513C471.132 88.6479 481.603 173.86 456.136 256.579H456.141Z" fill="#10257B"/>
<path d="M452.736 255.535C402.376 419.093 228.967 510.859 65.4081 460.504C44.9639 454.211 25.6411 445.994 7.57769 436.112C5.31977 434.878 3.08233 433.614 0.865375 432.328C-0.245665 431.683 -1.34647 431.033 -2.44727 430.378H-0.511906V-0.511261H417.357V-3.05078C418.028 -2.0063 418.688 -0.961821 419.343 0.0928988C420.659 2.19722 421.944 4.31178 423.209 6.44682C425.733 10.7118 428.155 15.0382 430.474 19.4209C467.564 89.5137 477.916 173.758 452.741 255.535H452.736Z" fill="#10257C"/>
<path d="M449.331 254.484C399.554 416.163 228.131 506.874 66.4521 457.093C46.2435 450.872 27.1407 442.746 9.28731 432.982C4.82267 430.54 0.434826 427.996 -3.87109 425.354H-0.517494V-0.512553H414.351V-1.12695C415.011 -0.0927132 415.667 0.941527 416.317 1.98089C417.618 4.05961 418.887 6.15369 420.137 8.26313C422.63 12.482 425.026 16.7572 427.32 21.0887C463.984 90.3777 474.219 173.649 449.331 254.489V254.484Z" fill="#0F267D"/>
<path d="M445.931 253.435C396.733 413.235 227.302 502.891 67.5072 453.688C47.534 447.539 28.6515 439.511 11.0028 429.854C6.58941 427.443 2.25789 424.924 -2.00195 422.313H-0.512033V-0.512367H409.38V-2.24805C414.71 5.84667 419.645 14.1923 424.177 22.7529C460.416 91.2329 470.528 173.542 445.931 253.44V253.435Z" fill="#0F267E"/>
<path d="M442.526 252.391C393.907 410.307 226.472 498.914 68.5511 450.289C48.8135 444.212 30.1563 436.276 12.7124 426.737C8.35018 424.351 4.06986 421.868 -0.138784 419.288C-1.18838 418.643 -2.23798 417.992 -3.27734 417.332H-0.512544V-0.51133H404.413V-3.28125C405.084 -2.28797 405.749 -1.29469 406.405 -0.29117C411.673 7.71139 416.552 15.9546 421.027 24.418C456.842 92.0941 466.836 173.43 442.526 252.391Z" fill="#0F267F"/>
<path d="M439.122 251.34C391.081 407.377 225.639 494.924 69.6014 446.883C50.0942 440.877 31.6622 433.038 14.4283 423.612C10.1223 421.257 5.88809 418.799 1.73065 416.25C0.69129 415.61 -0.34295 414.97 -1.37207 414.319H-0.51191V-0.51325H401.464V-1.28125C402.125 -0.29821 402.785 0.68483 403.436 1.67299C408.638 9.57827 413.461 17.7293 417.884 26.0852C453.269 92.9575 463.145 173.326 439.127 251.345L439.122 251.34Z" fill="#0F2780"/>
<path d="M435.717 250.293C388.255 404.451 224.804 490.943 70.6458 443.481C51.3741 437.546 33.1622 429.8 16.1382 420.492C11.8835 418.162 7.70049 415.735 3.59425 413.216C1.54113 411.957 -0.491509 410.672 -2.50879 409.366H-0.517109V-0.510567H396.529V-2.17969C397.86 -0.259687 399.171 1.68079 400.456 3.63151C405.596 11.4446 410.363 19.4933 414.73 27.7518C449.69 93.8152 459.448 173.216 435.717 250.298V250.293Z" fill="#0E2781"/>
<path d="M432.312 249.247C385.428 401.526 223.974 486.963 71.6951 440.079C52.6589 434.217 34.6724 426.568 17.8532 417.367C13.6496 415.068 9.5178 412.672 5.46276 410.178C3.43524 408.934 1.42308 407.664 -0.563477 406.374H-0.512277V-0.512154H391.613V-2.99023C392.284 -2.04815 392.944 -1.10095 393.605 -0.153754C394.921 1.74577 396.216 3.66065 397.486 5.58577C402.565 13.3016 407.27 21.253 411.586 29.4091C446.121 94.6686 455.757 173.102 432.317 249.241L432.312 249.247Z" fill="#0E2782"/>
<path d="M428.908 248.196C382.602 398.596 223.14 482.978 72.7399 436.673C53.9393 430.882 36.1729 423.33 19.5636 414.242C15.4113 411.969 11.3306 409.604 7.3268 407.146C5.32488 405.917 3.33832 404.663 1.37224 403.388C0.389197 402.748 -0.588723 402.108 -1.56152 401.458H-0.517043V-0.513365H386.709V-3.70312C389.397 -0.0116052 391.998 3.73623 394.506 7.55063C399.524 15.1692 404.168 23.0233 408.433 31.0822C442.542 95.5378 452.06 172.998 428.908 248.201V248.196Z" fill="#0E2783"/>
<path d="M425.502 247.148C379.776 395.664 222.31 478.997 73.789 433.266C55.2239 427.552 37.6777 420.087 21.2732 411.117C13.071 406.631 5.15543 401.767 -2.45801 396.555H-0.517528V-0.511003H383.831V-1.60156C386.488 2.04388 389.053 5.74564 391.531 9.50884C396.482 17.0352 401.075 24.7869 405.283 32.7434C438.963 96.3901 448.363 172.888 425.502 247.148Z" fill="#0E2884"/>
<path d="M422.103 246.104C376.955 392.741 221.481 475.014 74.8439 429.866C56.5143 424.223 39.1882 416.856 22.9937 407.998C14.8938 403.569 7.08071 398.767 -0.435451 393.621C-1.37753 392.976 -2.30937 392.331 -3.24121 391.676H-0.512251V-0.511307H378.977V-2.18555C379.643 -1.29467 380.303 -0.398667 380.958 0.502453C383.58 4.10181 386.114 7.75749 388.562 11.4746C393.451 18.9037 397.982 26.5632 402.14 34.4173C435.394 97.2602 444.677 172.785 422.103 246.109V246.104Z" fill="#0E2885"/>
<path d="M418.698 245.053C374.128 389.811 220.646 471.029 75.8884 426.459C57.7943 420.889 40.6935 413.613 24.7038 404.868C16.7115 400.496 8.99562 395.755 1.57162 390.676C-0.28182 389.406 -2.1199 388.116 -3.9375 386.805H-0.51222V-0.512714H374.134V-2.68359C375.47 -0.937674 376.786 0.823607 378.081 2.60025C380.672 6.15353 383.175 9.76313 385.587 13.429C390.415 20.766 394.89 28.3231 398.991 36.0748C431.821 98.1087 440.98 172.671 418.698 245.048V245.053Z" fill="#0D2886"/>
<path d="M415.293 244.003C371.302 386.882 219.817 467.046 76.9379 423.055C59.0794 417.556 42.1987 410.378 26.4189 401.745C18.529 397.429 10.9155 392.75 3.58881 387.737C1.75585 386.483 -0.0566327 385.208 -1.84863 383.912H-0.512313V-0.512531H369.31V-3.08789C369.981 -2.23285 370.647 -1.37781 371.307 -0.517651C372.628 1.20267 373.929 2.94347 375.204 4.69451C377.758 8.20171 380.231 11.7652 382.612 15.3851C387.379 22.6247 391.792 30.0846 395.842 37.739C428.247 98.9691 437.289 172.559 415.293 243.998V244.003Z" fill="#0D2887"/>
<path d="M411.889 242.954C368.476 383.953 218.983 463.062 77.9829 419.65C60.3598 414.223 43.6994 407.142 28.1294 398.622C20.3419 394.362 12.8309 389.744 5.60143 384.798C3.79407 383.559 2.00719 382.305 0.23567 381.025C-0.65009 380.385 -1.53073 379.739 -2.40625 379.094H-0.50673V-0.512711H364.519V-3.40039C375.276 9.95769 384.712 24.2988 392.704 39.4079C424.679 99.8342 433.603 172.456 411.899 242.954H411.889Z" fill="#0D2988"/>
<path d="M408.484 241.91C365.65 381.031 218.148 459.085 79.0321 416.251C61.6446 410.895 45.2042 403.907 29.8442 395.505C22.1642 391.301 14.7454 386.744 7.6132 381.865C4.04456 379.423 0.552722 376.904 -2.87256 374.303H-0.512238V-0.511869H361.738V-1.16211C372.352 12.0168 381.66 26.1684 389.55 41.0728C421.099 100.69 429.906 172.344 408.489 241.905L408.484 241.91Z" fill="#0D2989"/>
<path d="M405.079 240.859C362.824 378.096 217.319 455.095 80.077 412.845C62.9199 407.561 46.71 400.67 31.5497 392.375C23.9721 388.228 16.6556 383.738 9.62072 378.92C6.10328 376.514 2.6524 374.025 -0.72168 371.46H-0.51688V-0.512946H354.975V-3.75391C356.321 -2.16159 357.653 -0.548786 358.963 1.07425C369.434 14.0739 378.614 28.0362 386.396 42.7408C417.521 101.554 426.204 172.241 405.079 240.859Z" fill="#0C298A"/>
<path d="M401.679 239.81C360.002 375.168 216.489 451.113 81.1314 409.436C64.2098 404.229 48.2201 397.424 33.2697 389.248C25.7944 385.157 18.5804 380.728 11.6428 375.977C8.17141 373.601 4.77173 371.149 1.44373 368.619C-0.22027 367.355 -1.86891 366.069 -3.49707 364.769H-0.50699V-0.512259H352.266V-1.44922C353.597 0.122621 354.908 1.70982 356.198 3.31238C366.525 16.138 375.583 29.9057 383.258 44.4055C413.952 102.415 422.523 172.134 401.684 239.81H401.679Z" fill="#0C2A8B"/>
<path d="M398.275 238.766C357.176 372.245 215.654 447.135 82.176 406.037C65.4899 400.901 49.7203 394.194 34.9798 386.13C27.607 382.101 20.4953 377.728 13.6499 373.043C10.2297 370.704 6.87612 368.282 3.58908 365.788C1.94556 364.539 0.322524 363.275 -1.28516 361.989H-0.517156V-0.511732H345.549V-3.75781C348.247 -0.716532 350.874 2.38619 353.418 5.54523C363.602 18.1916 372.531 31.7699 380.099 46.07C410.368 103.271 418.816 172.022 398.269 238.761L398.275 238.766Z" fill="#0C2A8C"/>
<path d="M394.87 237.717C354.35 369.317 214.825 443.152 83.2254 402.632C50.3243 392.505 21.0379 376.188 -3.7583 355.349H-0.512221V-0.511199H342.891V-1.38672C345.554 1.6136 348.139 4.67024 350.653 7.78832C360.694 20.2555 369.5 33.6443 376.96 47.7397C406.804 104.136 415.134 171.92 394.875 237.717H394.87Z" fill="#0C2A8D"/>
<path d="M391.465 236.667C351.524 366.387 213.99 439.168 84.2698 399.227C51.8397 389.243 22.968 373.156 -1.46973 352.619H-0.512287V-0.512237H336.235V-3.41016C337.587 -1.9612 338.913 -0.501996 340.229 0.977684C342.855 3.93192 345.405 6.9476 347.878 10.0196C357.775 22.3076 366.454 35.507 373.811 49.4026C403.23 104.996 411.438 171.806 391.47 236.667H391.465Z" fill="#0B2A8E"/>
<path d="M388.06 235.624C348.698 363.46 213.156 435.186 85.3196 395.829C53.3606 385.988 24.9087 370.136 0.819133 349.897C-0.686148 348.632 -2.17607 347.352 -3.64551 346.052H-0.517188V-0.510643H333.629V-0.976562C334.961 0.451918 336.271 1.89064 337.562 3.34984C340.147 6.26312 342.661 9.23272 345.098 12.2638C354.852 24.3726 363.407 37.3774 370.652 51.0785C399.642 105.862 407.736 171.711 388.055 235.629L388.06 235.624Z" fill="#0B2B8F"/>
<path d="M384.655 234.573C345.871 360.53 212.326 431.201 86.3692 392.422C54.8812 382.725 26.8441 367.109 3.11292 347.167C1.62812 345.923 0.163804 344.658 -1.28516 343.378H-0.512036V-0.51203H327.045V-2.71875C332.426 2.78013 337.526 8.52989 342.333 14.4947C351.944 26.4294 360.371 39.2396 367.514 52.736C396.078 106.716 404.05 171.592 384.66 234.573H384.655Z" fill="#0B2B90"/>
<path d="M381.251 233.524C343.05 357.602 211.492 427.218 87.4139 389.018C56.3918 379.469 28.7796 364.084 5.4017 344.438C2.47818 341.981 -0.378783 339.462 -3.16406 336.876H-0.517023V-0.511627H322.499V-2.24219C323.169 -1.57147 323.835 -0.900747 324.501 -0.219787C329.805 5.19717 334.828 10.8599 339.558 16.7377C349.025 28.4932 357.325 41.114 364.36 54.4106C392.499 107.587 400.353 171.495 381.251 233.534V233.524Z" fill="#0B2B90"/>
<path d="M376.146 231.951C338.811 353.208 210.248 421.243 88.9856 383.908C58.6701 374.574 31.6826 359.537 8.83715 340.342C5.98019 337.941 3.18979 335.478 0.465949 332.949C-0.895971 331.684 -2.24253 330.404 -3.57373 329.114H-0.517091V-0.512004H314.737V-2.33984C315.407 -1.69984 316.078 -1.05472 316.744 -0.409604C318.075 0.885756 319.386 2.19136 320.681 3.51744C325.862 8.81152 330.772 14.3462 335.396 20.0909C344.648 31.5802 352.763 43.9142 359.634 56.9037C387.133 108.867 394.808 171.325 376.141 231.956L376.146 231.951Z" fill="#0B2B91"/>
<path d="M371.041 230.378C334.576 348.819 208.998 415.267 90.5624 378.802C60.9535 369.683 34.5906 354.999 12.2776 336.25C6.69684 331.56 1.37204 326.619 -3.68652 321.448H-0.512124V5.97914H-2.43212C-1.79212 5.33914 -1.15212 4.69914 -0.501884 4.06938C2.08372 1.5401 4.73076 -0.922615 7.429 -3.3239V-0.518135H305.044V-3.98438C306.406 -2.78118 307.753 -1.56262 309.084 -0.328695C311.746 2.13914 314.342 4.66842 316.872 7.25402C321.93 12.4252 326.728 17.8319 331.243 23.4383C340.28 34.6563 348.206 46.7087 354.918 59.3961C381.778 110.151 389.273 171.155 371.041 230.373V230.378Z" fill="#0A2C92"/>
<path d="M365.936 228.807C330.337 344.427 207.754 409.297 92.1343 373.698C63.2318 364.799 37.4987 350.463 15.7131 332.159C10.2654 327.582 5.06865 322.759 0.127848 317.71C-1.10607 316.446 -2.32463 315.171 -3.52783 313.881H-0.512152V13.5516H-2.35023C-1.74095 12.9116 -1.12655 12.2716 -0.512152 11.6367C0.721768 10.367 1.97105 9.11769 3.23057 7.88377C5.75473 5.41593 8.33521 3.00953 10.972 0.669689C12.2878 -0.497671 13.619 -1.65479 14.9656 -2.79143V-0.518151H297.467V-3.45703C319.252 14.847 337.085 37.119 350.198 61.8946C376.417 111.441 383.734 170.992 365.936 228.802V228.807Z" fill="#0A2C93"/>
<path d="M360.827 227.234C326.098 340.033 206.5 403.321 93.7012 368.592C65.5002 359.909 40.3969 345.921 19.1437 328.067C13.8292 323.603 8.76038 318.898 3.93734 313.972C1.52582 311.509 -0.819142 308.99 -3.10266 306.42H-0.522182V22.9667H-3.73242C-2.58554 21.6662 -1.4233 20.3862 -0.250822 19.1164C2.09926 16.582 4.50566 14.1091 6.9735 11.6975C11.8989 6.87962 17.0445 2.31258 22.3898 -1.99334V-0.523902H290.002V-2.66406C291.359 -1.57862 292.705 -0.477823 294.031 0.638338C315.285 18.4969 332.682 40.2262 345.477 64.3977C371.057 112.736 378.199 170.837 360.832 227.234H360.827Z" fill="#0A2C94"/>
<path d="M355.722 225.665C321.858 335.643 205.255 397.349 95.2779 363.491C67.7835 355.027 43.3048 341.388 22.5841 323.974C17.4027 319.622 12.4568 315.035 7.75659 310.227C5.40651 307.826 3.11787 305.368 0.89579 302.865C-0.21525 301.61 -1.31605 300.346 -2.39637 299.066H-0.51733V30.3475H-3.03125C5.67275 19.9846 15.3239 10.5638 25.7431 2.17214C28.3492 0.0729389 31.0014 -1.9597 33.6996 -3.92578V-0.515861H282.649V-1.62178C285.358 0.436459 288.005 2.55102 290.596 4.72702C311.316 22.1401 328.284 43.3267 340.751 66.8941C365.691 114.024 372.654 170.671 355.722 225.66V225.665Z" fill="#0A2C95"/>
<path d="M350.617 224.091C317.624 331.247 204.006 391.371 96.8498 358.378C70.0619 350.13 46.2079 336.843 26.0197 319.875C15.9231 311.392 6.74291 301.991 -1.42861 291.838H-0.512131V37.6099H-2.07373C-1.04461 36.3196 0.00498948 35.0448 1.06483 33.7801C9.54867 23.6835 18.949 14.5033 29.1019 6.33179C31.6415 4.28891 34.2271 2.30747 36.8536 0.392594C38.1695 -0.564846 39.4955 -1.50693 40.8319 -2.43365V-0.508526H271.345V-3.19141C276.838 0.566674 282.117 4.58075 287.16 8.82011C307.348 25.7878 323.881 46.4316 336.031 69.3897C360.33 115.311 367.114 170.505 350.617 224.085V224.091Z" fill="#092D96"/>
<path d="M345.513 222.52C313.39 326.861 202.762 385.398 98.4218 353.275C72.3354 345.241 49.1162 332.308 29.4554 315.786C19.625 307.527 10.6854 298.373 2.72896 288.486C0.73728 286.013 -1.18784 283.499 -3.05664 280.939H-0.512V44.7537H-0.8704C1.08032 42.1886 3.08736 39.6747 5.15584 37.2171C13.4144 27.3867 22.569 18.4472 32.4557 10.4907C37.3965 6.51246 42.5216 2.77486 47.8106 -0.706738V-0.517298H260.142V-4.08594C262.922 -2.38098 265.651 -0.609458 268.324 1.21838C273.674 4.87918 278.81 8.78574 283.725 12.9176C303.386 29.4347 319.478 49.5358 331.31 71.8949C354.97 116.608 361.574 170.352 345.513 222.52Z" fill="#092D97"/>
<path d="M340.403 220.948C309.146 322.468 201.513 379.428 99.9935 348.17C74.6137 340.357 52.0191 327.767 32.8908 311.695C23.3267 303.657 14.6278 294.753 6.88633 285.133C3.01561 280.325 -0.619586 275.338 -4.00391 270.192H-0.512066V55.6388H-2.12999C1.43353 50.4318 5.23257 45.4346 9.25177 40.6526C17.2902 31.0884 26.1938 22.3895 35.8143 14.6481C40.622 10.7774 45.6089 7.14216 50.7545 3.75784C53.3247 2.06312 55.9359 0.434958 58.583 -1.13176V-0.512242H253.25V-1.97656C254.628 -1.17784 255.99 -0.363762 257.346 0.465678C260.05 2.12456 262.702 3.84488 265.308 5.62664C270.515 9.19016 275.512 12.9892 280.294 17.0084C299.423 33.0801 315.085 52.6385 326.594 74.3934C349.619 117.898 356.045 170.189 340.413 220.948H340.403Z" fill="#092D98"/>
<path d="M335.299 219.377C304.912 318.075 200.264 373.453 101.566 343.066C76.8923 335.468 54.9224 323.231 36.3266 307.605C27.0287 299.791 18.5755 291.133 11.044 281.779C7.28082 277.105 3.74802 272.256 0.455859 267.254C-0.368461 266.005 -1.17742 264.745 -1.9659 263.475H-0.511821V66.3962H-2.74414C-1.13134 63.7696 0.542899 61.1892 2.27346 58.6548C5.73458 53.5962 9.43122 48.7373 13.3378 44.0884C28.964 25.4925 47.9797 10.2708 69.1304 -0.921555V-0.511955H238.193V-3.92188C241.014 -2.55996 243.784 -1.13147 246.508 0.358445C257.408 6.32324 267.551 13.2864 276.849 21.0996C295.445 36.7258 310.672 55.7415 321.864 76.8871C344.248 119.183 350.495 170.02 335.299 219.372V219.377Z" fill="#092D99"/>
<path d="M330.194 217.804C300.672 313.681 199.02 367.477 103.137 337.955C55.1987 323.194 17.7818 290.4 -3.96289 249.312H-0.51201V76.9987H-2.71873C3.07199 66.4105 9.84063 56.5596 17.4285 47.528C32.6093 29.4646 51.0771 14.6729 71.6237 3.80317C76.759 1.08445 82.0275 -1.38851 87.4035 -3.60547V-0.507869H227.512V-2.89379C233.165 -0.502749 238.643 2.14941 243.937 5.04221C254.525 10.8329 264.376 17.6016 273.408 25.1894C291.471 40.3702 306.263 58.838 317.133 79.3846C338.877 120.473 344.945 169.855 330.184 217.799L330.194 217.804Z" fill="#082E9A"/>
<path d="M325.089 216.233C296.438 309.294 197.77 361.503 104.714 332.852C58.1837 318.526 21.8676 286.695 0.762935 246.815C-0.558025 244.322 -1.81754 241.797 -3.01562 239.248H-0.511945V87.409H-2.0633C-0.778185 84.7517 0.568375 82.1354 1.97126 79.5652C7.59302 69.2893 14.162 59.7252 21.5297 50.9597C36.265 33.4237 54.1901 19.0724 74.1325 8.52004C79.1194 5.88324 84.2292 3.48196 89.4465 1.32644C92.0577 0.251236 94.6893 -0.762524 97.3517 -1.71484V-0.516764H217.078V-1.25916C219.904 -0.230044 222.689 0.865636 225.434 2.02788C230.922 4.34724 236.237 6.9226 241.377 9.73348C251.653 15.3552 261.217 21.9242 269.983 29.2919C287.519 44.0272 301.87 61.9524 312.422 81.8948C333.527 121.774 339.415 169.708 325.089 216.238V216.233Z" fill="#082E9B"/>
<path d="M319.979 214.661C292.193 304.901 196.521 355.528 106.281 327.747C61.1634 313.856 25.943 282.988 5.47832 244.316C2.91832 239.483 0.593843 234.527 -1.49512 229.468H-0.517197V97.5978H-0.819277C1.4284 92.2781 3.92696 87.1223 6.6508 82.1354C12.1036 72.1667 18.4729 62.8995 25.6153 54.3952C39.9001 37.3917 57.2876 23.4704 76.6207 13.2407C86.2873 8.12579 96.4454 3.93251 106.946 0.732509C112.194 -0.864931 117.535 -2.21661 122.936 -3.30205V-0.516771H189.926V-3.33789C195.589 -2.20637 201.252 -0.772771 206.894 0.962909C297.134 28.7491 347.761 124.421 319.979 214.661Z" fill="#082E9C"/>
<path d="M314.875 213.084C287.959 300.503 195.272 349.553 107.853 322.637C64.1435 309.182 30.0289 279.281 10.2043 241.818C5.24809 232.453 1.18281 222.613 -1.90967 212.439H-0.511908V115.615H-1.69463C11.7607 71.9055 41.6615 37.791 79.1246 17.9664C97.8587 8.05403 118.477 1.71547 139.884 -0.465649C161.285 -2.64677 183.47 -0.665329 205.327 6.06747C292.746 32.9833 341.796 125.671 314.88 213.09L314.875 213.084Z" fill="#082E9D"/>
<path d="M309.77 211.511C283.724 296.109 194.027 343.577 109.429 317.531C67.1279 304.506 34.1142 275.573 14.9295 239.318C5.33465 221.188 -0.799112 201.236 -2.90855 180.52H-0.512391V149.017H-2.98535C-1.95623 138.418 0.153208 127.764 3.40953 117.186C16.4297 74.8894 45.3679 41.8705 81.6227 22.6859C117.877 3.50121 161.454 -1.85431 203.75 11.171C288.348 37.2164 335.815 126.914 309.77 211.511Z" fill="#072F9E"/>
<path d="M304.66 209.939C279.48 291.716 192.773 337.601 110.996 312.421C70.1081 299.831 38.19 271.86 19.6454 236.814C1.10072 201.773 -4.0756 159.65 8.51448 118.762C21.1046 77.8686 49.0751 45.9556 84.1215 27.411C119.168 8.86635 161.29 3.69002 202.178 16.2801C283.955 41.4603 329.841 128.167 304.66 209.944V209.939Z" fill="#072F9F"/>
<path d="M299.556 208.368C275.246 287.329 191.529 331.627 112.568 307.318C73.0879 295.163 42.2757 268.155 24.366 234.317C6.45621 200.479 1.46421 159.81 13.6191 120.33C37.9288 41.3745 121.646 -2.92883 200.607 21.3809C279.567 45.6907 323.865 129.408 299.556 208.368Z" fill="#072FA0"/>
<path d="M294.451 206.798C271.007 282.937 190.279 325.659 114.14 302.214C76.0728 290.495 46.3563 264.449 29.0865 231.819C11.8168 199.19 6.99884 159.976 18.7236 121.903C42.1681 45.7688 122.895 3.04751 199.035 26.492C275.174 49.9365 317.896 130.664 294.451 206.803V206.798Z" fill="#072FA1"/>
<path d="M156.59 303.257C233.306 303.257 295.496 241.066 295.496 164.351C295.496 87.6355 233.306 25.4453 156.59 25.4453C79.8747 25.4453 17.6846 87.6355 17.6846 164.351C17.6846 241.066 79.8747 303.257 156.59 303.257Z" fill="#0630A2"/>
<path d="M156.59 297.916C230.356 297.916 290.155 238.117 290.155 164.351C290.155 90.5844 230.356 30.7852 156.59 30.7852C82.8237 30.7852 23.0244 90.5844 23.0244 164.351C23.0244 238.117 82.8237 297.916 156.59 297.916Z" fill="#0630A3"/>
<path d="M156.59 292.573C227.404 292.573 284.81 235.167 284.81 164.353C284.81 93.5389 227.404 36.1328 156.59 36.1328C85.7757 36.1328 28.3696 93.5389 28.3696 164.353C28.3696 235.167 85.7757 292.573 156.59 292.573Z" fill="#0630A4"/>
<path d="M156.59 287.233C224.455 287.233 279.47 232.217 279.47 164.353C279.47 96.4879 224.455 41.4727 156.59 41.4727C88.7252 41.4727 33.71 96.4879 33.71 164.353C33.71 232.217 88.7252 287.233 156.59 287.233Z" fill="#0630A5"/>
<path d="M156.59 281.886C221.503 281.886 274.125 229.264 274.125 164.351C274.125 99.4385 221.503 46.8164 156.59 46.8164C91.6773 46.8164 39.0552 99.4385 39.0552 164.351C39.0552 229.264 91.6773 281.886 156.59 281.886Z" fill="#0531A7"/>
<path d="M156.59 276.545C218.553 276.545 268.785 226.314 268.785 164.351C268.785 102.387 218.553 52.1562 156.59 52.1562C94.6267 52.1562 44.3955 102.387 44.3955 164.351C44.3955 226.314 94.6267 276.545 156.59 276.545Z" fill="#0531A8"/>
<path d="M156.59 271.201C215.601 271.201 263.439 223.362 263.439 164.351C263.439 105.34 215.601 57.502 156.59 57.502C97.5788 57.502 49.7407 105.34 49.7407 164.351C49.7407 223.362 97.5788 271.201 156.59 271.201Z" fill="#0531A9"/>
<path d="M156.59 265.862C212.652 265.862 258.099 220.415 258.099 164.353C258.099 108.291 212.652 62.8438 156.59 62.8438C100.528 62.8438 55.0811 108.291 55.0811 164.353C55.0811 220.415 100.528 265.862 156.59 265.862Z" fill="#0531AA"/>
<path d="M156.59 260.515C209.7 260.515 252.754 217.461 252.754 164.351C252.754 111.242 209.7 68.1875 156.59 68.1875C103.48 68.1875 60.4263 111.242 60.4263 164.351C60.4263 217.461 103.48 260.515 156.59 260.515Z" fill="#0432AB"/>
<path d="M156.59 255.175C206.751 255.175 247.414 214.512 247.414 164.351C247.414 114.19 206.751 73.5273 156.59 73.5273C106.43 73.5273 65.7666 114.19 65.7666 164.351C65.7666 214.512 106.43 255.175 156.59 255.175Z" fill="#0432AC"/>
<path d="M156.59 249.83C203.798 249.83 242.068 211.56 242.068 164.351C242.068 117.143 203.798 78.873 156.59 78.873C109.381 78.873 71.1113 117.143 71.1113 164.351C71.1113 211.56 109.381 249.83 156.59 249.83Z" fill="#0432AD"/>
<path d="M156.59 244.491C200.849 244.491 236.728 208.612 236.728 164.353C236.728 120.094 200.849 84.2148 156.59 84.2148C112.331 84.2148 76.4517 120.094 76.4517 164.353C76.4517 208.612 112.331 244.491 156.59 244.491Z" fill="#0432AE"/>
<path d="M156.59 239.151C197.9 239.151 231.388 205.663 231.388 164.353C231.388 123.043 197.9 89.5547 156.59 89.5547C115.28 89.5547 81.792 123.043 81.792 164.353C81.792 205.663 115.28 239.151 156.59 239.151Z" fill="#0333AF"/>
<path d="M156.59 233.804C194.948 233.804 226.043 202.709 226.043 164.351C226.043 125.994 194.948 94.8984 156.59 94.8984C118.232 94.8984 87.1372 125.994 87.1372 164.351C87.1372 202.709 118.232 233.804 156.59 233.804Z" fill="#0333B0"/>
<path d="M156.59 228.464C191.999 228.464 220.703 199.759 220.703 164.351C220.703 128.942 191.999 100.238 156.59 100.238C121.182 100.238 92.4775 128.942 92.4775 164.351C92.4775 199.759 121.182 228.464 156.59 228.464Z" fill="#0333B1"/>
<path d="M156.59 223.119C189.046 223.119 215.357 196.808 215.357 164.351C215.357 131.895 189.046 105.584 156.59 105.584C124.133 105.584 97.8223 131.895 97.8223 164.351C97.8223 196.808 124.133 223.119 156.59 223.119Z" fill="#0333B2"/>
<path d="M156.59 217.78C186.097 217.78 210.017 193.86 210.017 164.353C210.017 134.846 186.097 110.926 156.59 110.926C127.083 110.926 103.163 134.846 103.163 164.353C103.163 193.86 127.083 217.78 156.59 217.78Z" fill="#0234B3"/>
<path d="M156.59 212.433C183.145 212.433 204.672 190.906 204.672 164.351C204.672 137.797 183.145 116.27 156.59 116.27C130.035 116.27 108.508 137.797 108.508 164.351C108.508 190.906 130.035 212.433 156.59 212.433Z" fill="#0234B4"/>
<path d="M156.59 207.093C180.196 207.093 199.332 187.957 199.332 164.351C199.332 140.746 180.196 121.609 156.59 121.609C132.984 121.609 113.848 140.746 113.848 164.351C113.848 187.957 132.984 207.093 156.59 207.093Z" fill="#0234B5"/>
<path d="M156.59 201.748C177.243 201.748 193.986 185.005 193.986 164.352C193.986 143.698 177.243 126.955 156.59 126.955C135.936 126.955 119.193 143.698 119.193 164.352C119.193 185.005 135.936 201.748 156.59 201.748Z" fill="#0234B6"/>
<path d="M156.59 196.408C174.294 196.408 188.646 182.055 188.646 164.351C188.646 146.647 174.294 132.295 156.59 132.295C138.886 132.295 124.534 146.647 124.534 164.351C124.534 182.055 138.886 196.408 156.59 196.408Z" fill="#0135B7"/>
<path d="M156.59 191.063C171.342 191.063 183.301 179.104 183.301 164.352C183.301 149.6 171.342 137.641 156.59 137.641C141.838 137.641 129.879 149.6 129.879 164.352C129.879 179.104 141.838 191.063 156.59 191.063Z" fill="#0135B8"/>
<path d="M156.59 185.722C168.392 185.722 177.961 176.154 177.961 164.351C177.961 152.549 168.392 142.98 156.59 142.98C144.787 142.98 135.219 152.549 135.219 164.351C135.219 176.154 144.787 185.722 156.59 185.722Z" fill="#0135B9"/>
<path d="M156.59 180.377C165.441 180.377 172.616 173.202 172.616 164.352C172.616 155.501 165.441 148.326 156.59 148.326C147.739 148.326 140.564 155.501 140.564 164.352C140.564 173.202 147.739 180.377 156.59 180.377Z" fill="#0135BA"/>
<path d="M156.59 175.037C162.491 175.037 167.275 170.253 167.275 164.351C167.275 158.45 162.491 153.666 156.59 153.666C150.688 153.666 145.904 158.45 145.904 164.351C145.904 170.253 150.688 175.037 156.59 175.037Z" fill="#0036BB"/>
<path d="M156.59 169.692C159.539 169.692 161.93 167.301 161.93 164.352C161.93 161.403 159.539 159.012 156.59 159.012C153.641 159.012 151.25 161.403 151.25 164.352C151.25 167.301 153.641 169.692 156.59 169.692Z" fill="#0036BC"/>
</g>
<path d="M387.487 128.082H124.513C119.989 128.082 116.321 131.75 116.321 136.274V193.403C116.321 197.927 119.989 201.595 124.513 201.595H387.487C392.011 201.595 395.679 197.927 395.679 193.403V136.274C395.679 131.75 392.011 128.082 387.487 128.082Z" fill="#737373"/>
<circle cx="308.736" cy="165.376" r="5.12" fill="#21FFDA"/>
<circle cx="331.264" cy="165.376" r="5.12" fill="#FCED15"/>
<circle cx="353.792" cy="165.376" r="5.12" fill="#FC1515"/>
<rect x="153.088" y="160.256" width="56.832" height="10.24" rx="5.12" fill="#FCED15"/>
<path d="M409.538 219.238H102.456C97.9314 219.238 94.2637 222.906 94.2637 227.43V284.559C94.2637 289.084 97.9314 292.751 102.456 292.751H409.538C414.062 292.751 417.73 289.084 417.73 284.559V227.43C417.73 222.906 414.062 219.238 409.538 219.238Z" fill="#737373"/>
<circle cx="329.216" cy="255.999" r="5.12" fill="#21FFDA"/>
<circle cx="351.744" cy="255.999" r="5.12" fill="#FCED15"/>
<circle cx="374.272" cy="255.999" r="5.12" fill="#FC1515"/>
<rect x="132.608" y="250.879" width="56.832" height="10.24" rx="5.12" fill="#FCED15"/>
<path d="M380.134 310.4H131.865C127.341 310.4 123.673 314.068 123.673 318.592V375.721C123.673 380.246 127.341 383.913 131.865 383.913H380.134C384.658 383.913 388.326 380.246 388.326 375.721V318.592C388.326 314.068 384.658 310.4 380.134 310.4Z" fill="#737373"/>
<circle cx="308.736" cy="347.136" r="5.12" fill="#21FFDA"/>
<circle cx="331.264" cy="347.136" r="5.12" fill="#FCED15"/>
<circle cx="353.792" cy="347.136" r="5.12" fill="#FC1515"/>
<rect x="153.088" y="342.016" width="56.832" height="10.24" rx="5.12" fill="#FCED15"/>
</svg>
